<?xml version="1.0" encoding="UTF-8"?>
<svg id="Lager_2" data-name="Lager 2" xmlns="http://www.w3.org/2000/svg" viewBox="0 0 82.24 59.82">
  <g id="Lager_1-2" data-name="Lager 1">
    <g id="Group_2" data-name="Group 2">
      <path id="Anna" d="M2.4,21.67c-.74,0-1.36-.22-1.84-.65-.46-.43-.64-1.08-.54-1.94.02-.31.1-.64.22-.97.14-.36.3-.71.47-1.04.14-.34.29-.5.43-.5.12,0,.13.1.04.29-.31.65-.47,1.22-.47,1.73s.18.92.54,1.19c.38.26.88.4,1.48.4,1.18,0,2.47-.37,3.89-1.12,1.42-.77,2.88-1.74,4.39-2.92,1.51-1.2,2.96-2.45,4.36-3.74-.94-.05-1.81-.1-2.63-.14s-1.54-.07-2.16-.07c-.53,0-1.16.05-1.91.14-.74.1-1.32.35-1.73.76-.17.17-.32.42-.47.76-.12.31-.18.64-.18.97v.29c.02.07.05.16.07.25-.1-.05-.28-.08-.54-.11-.24-.05-.4-.2-.47-.47-.02-.07-.04-.19-.04-.36,0-.38.14-.7.43-.94.29-.26.64-.49,1.04-.68.41-.19.78-.36,1.12-.5.79-.34,1.61-.61,2.45-.83.84-.22,1.69-.32,2.56-.32.98,0,2.21.04,3.67.11,1.13-1.1,2.17-2.15,3.13-3.13.96-.98,1.74-1.8,2.34-2.45.84-.89,1.73-1.64,2.66-2.27.96-.65,1.93-1.1,2.92-1.37h-1.98c-.84,0-1.75.04-2.74.11-.98.07-1.91.23-2.77.47-.86.24-1.58.6-2.16,1.08-.36.31-.64.67-.83,1.08-.17.38-.25.74-.25,1.08,0,.46.13.77.4.94.02,0,.04.01.04.04,0,.07-.08.16-.25.25-.17.07-.29.08-.36.04-.24-.17-.46-.5-.65-1.01-.17-.53-.23-.95-.18-1.26.12-.74.44-1.34.97-1.8.55-.48,1.22-.85,2.02-1.12.82-.26,1.67-.44,2.56-.54.91-.1,1.78-.16,2.59-.18.84-.02,1.55-.04,2.12-.04h3.92s.06.01.04.04c.6-.26,1.22-.53,1.87-.79.67-.26,1.25-.4,1.73-.4.12,0,.24.04.36.11.14.07.22.14.22.22,0,.12-.24.18-.72.18-.24,0-.49.05-.76.14-.24.07-.56.32-.97.76-.34.34-.76.88-1.26,1.62-.5.74-1.06,1.62-1.66,2.63-.6.98-1.2,2.04-1.8,3.17-.6,1.1-1.18,2.2-1.73,3.28s-1.03,2.08-1.44,2.99c-.05.14-.18.48-.4,1.01-.22.5-.42,1.07-.61,1.69-.19.6-.29,1.14-.29,1.62,0,.65.23.97.68.97.22,0,.43-.05.65-.14.31-.12.64-.3.97-.54s.66-.52.97-.83c.62-.6,1.15-1.18,1.58-1.73.43-.58.7-.92.79-1.04.07-.12.16-.18.25-.18s.14.06.14.18c0,.07-.04.17-.11.29-.17.24-.48.66-.94,1.26-.46.58-1,1.16-1.62,1.76-.6.6-1.25,1.06-1.94,1.37-.22.1-.44.17-.68.22-.24.07-.48.11-.72.11-.48,0-.92-.17-1.33-.5-.38-.34-.58-.89-.58-1.66,0-.7.13-1.44.4-2.23.29-.82.55-1.48.79-1.98.48-1.03,1.04-2.18,1.69-3.46.67-1.27,1.36-2.54,2.05-3.82.72-1.27,1.38-2.42,1.98-3.46s1.09-1.8,1.48-2.3c-.38,0-.9.16-1.55.47-.65.29-1.34.68-2.09,1.19-.72.48-1.39,1.04-2.02,1.69-.74.77-1.61,1.7-2.59,2.81-.96,1.1-2,2.26-3.13,3.46.55.02,1.1.05,1.66.07h1.66c.38,0,.8-.04,1.26-.11.48-.1.92-.24,1.33-.43,0,0-.07.13-.22.4-.12.24-.34.49-.65.76-.29.24-.68.38-1.19.43-.46.02-.91.05-1.37.07h-2.52c-.36,0-.72-.01-1.08-.04-1.1,1.15-2.26,2.28-3.46,3.38-1.2,1.08-2.41,2.06-3.64,2.95s-2.45,1.58-3.67,2.09c-1.2.53-2.38.79-3.53.79ZM28.34,21.31c-.1,0-.1-.11,0-.32.12-.22.23-.46.32-.72.12-.26.24-.55.36-.86.24-.58.5-1.22.79-1.94.29-.72.56-1.42.83-2.09.26-.7.49-1.28.68-1.76.22-.5.36-.83.43-.97-.34.36-.74.82-1.22,1.37-.46.53-.89,1.04-1.3,1.55-.41.5-.72.9-.94,1.19-.07.1-.13.14-.18.14s-.07-.06-.07-.18c0-.19.06-.37.18-.54.46-.58.96-1.22,1.51-1.94.58-.72,1.09-1.38,1.55-1.98.46-.62.74-1.03.86-1.22.26-.05.65-.12,1.15-.22.53-.1.89-.23,1.08-.4.07-.07.14-.11.22-.11.05,0,.07.05.07.14.02.07,0,.16-.07.25-.14.17-.4.56-.76,1.19-.34.6-.71,1.27-1.12,2.02-.38.74-.74,1.42-1.08,2.02.29-.38.6-.76.94-1.12.34-.36.66-.71.97-1.04.29-.29.68-.65,1.19-1.08.5-.43,1.03-.83,1.58-1.19.55-.36,1.03-.56,1.44-.61.1-.02.18-.04.25-.04h.22c.53,0,.79.19.79.58,0,.29-.16.67-.47,1.15-.17.26-.43.71-.79,1.33-.34.6-.68,1.26-1.04,1.98-.34.7-.64,1.36-.9,1.98-.24.6-.36,1.04-.36,1.33,0,.34.17.5.5.5.41,0,.85-.2,1.33-.61.5-.41,1.04-.92,1.62-1.55.58-.65,1.15-1.33,1.73-2.05.05.05.07.13.07.25,0,.17-.06.34-.18.5-.1.14-.19.28-.29.4-.24.31-.56.71-.97,1.19-.38.46-.78.91-1.19,1.37-.41.43-.78.78-1.12,1.04-.24.17-.55.35-.94.54-.38.19-.77.29-1.15.29-.43,0-.73-.11-.9-.32-.17-.24-.25-.53-.25-.86,0-.38.07-.79.22-1.22.14-.43.3-.84.47-1.22.19-.41.34-.71.43-.9.43-.84.83-1.63,1.19-2.38.36-.74.61-1.27.76-1.58.07-.14.11-.26.11-.36,0-.17-.13-.18-.4-.04-.26.14-.59.36-.97.65-.36.29-.7.58-1.01.86-.31.26-.52.44-.61.54-.89.94-1.67,1.98-2.34,3.13-.65,1.13-1.2,2.29-1.66,3.49-.31.02-.62.11-.94.25-.31.14-.53.22-.65.22ZM40.22,21.31c-.1,0-.1-.11,0-.32.12-.22.23-.46.32-.72.12-.26.24-.55.36-.86.24-.58.5-1.22.79-1.94.29-.72.56-1.42.83-2.09.26-.7.49-1.28.68-1.76.22-.5.36-.83.43-.97-.34.36-.74.82-1.22,1.37-.46.53-.89,1.04-1.3,1.55-.41.5-.72.9-.94,1.19-.07.1-.13.14-.18.14s-.07-.06-.07-.18c0-.19.06-.37.18-.54.46-.58.96-1.22,1.51-1.94.58-.72,1.09-1.38,1.55-1.98.46-.62.74-1.03.86-1.22.26-.05.65-.12,1.15-.22.53-.1.89-.23,1.08-.4.07-.07.14-.11.22-.11.05,0,.07.05.07.14.02.07,0,.16-.07.25-.14.17-.4.56-.76,1.19-.34.6-.71,1.27-1.12,2.02-.38.74-.74,1.42-1.08,2.02.29-.38.6-.76.94-1.12.34-.36.66-.71.97-1.04.29-.29.68-.65,1.19-1.08.5-.43,1.03-.83,1.58-1.19.55-.36,1.03-.56,1.44-.61.1-.02.18-.04.25-.04h.22c.53,0,.79.19.79.58,0,.29-.16.67-.47,1.15-.17.26-.43.71-.79,1.33-.34.6-.68,1.26-1.04,1.98-.34.7-.64,1.36-.9,1.98-.24.6-.36,1.04-.36,1.33,0,.34.17.5.5.5.41,0,.85-.2,1.33-.61.5-.41,1.04-.92,1.62-1.55.58-.65,1.15-1.33,1.73-2.05.05.05.07.13.07.25,0,.17-.06.34-.18.5-.1.14-.19.28-.29.4-.24.31-.56.71-.97,1.19-.38.46-.78.91-1.19,1.37-.41.43-.78.78-1.12,1.04-.24.17-.55.35-.94.54s-.77.29-1.15.29c-.43,0-.73-.11-.9-.32-.17-.24-.25-.53-.25-.86,0-.38.07-.79.22-1.22.14-.43.3-.84.47-1.22.19-.41.34-.71.43-.9.43-.84.83-1.63,1.19-2.38.36-.74.61-1.27.76-1.58.07-.14.11-.26.11-.36,0-.17-.13-.18-.4-.04-.26.14-.59.36-.97.65-.36.29-.7.58-1.01.86-.31.26-.52.44-.61.54-.89.94-1.67,1.98-2.34,3.13-.65,1.13-1.2,2.29-1.66,3.49-.31.02-.62.11-.94.25-.31.14-.53.22-.65.22ZM56.79,20.88c-.24,0-.44-.05-.61-.14-.17-.1-.25-.28-.25-.54,0-.34.08-.72.25-1.15.17-.43.36-.85.58-1.26.22-.43.41-.78.58-1.04-.84.89-1.72,1.73-2.63,2.52-.46.38-.96.74-1.51,1.08-.55.34-1.14.5-1.76.5-.24,0-.41-.07-.5-.22-.1-.17-.14-.36-.14-.58,0-.12.01-.2.04-.25.12-.94.42-1.91.9-2.92.48-1.01,1.07-1.96,1.76-2.84.7-.89,1.4-1.61,2.12-2.16.82-.62,1.72-.94,2.7-.94h4.14c.12,0,.18.05.18.14,0,.19-.11.29-.32.29-.24,0-.48.16-.72.47-.24.29-.42.53-.54.72-.17.26-.43.71-.79,1.33-.36.62-.73,1.31-1.12,2.05-.36.72-.67,1.39-.94,2.02-.26.62-.4,1.08-.4,1.37,0,.34.17.5.5.5.36,0,.77-.17,1.22-.5.46-.34.91-.74,1.37-1.22.48-.5.91-1,1.3-1.48.41-.5.73-.9.97-1.19.14.14.13.35-.04.61-.14.24-.28.43-.4.58-.48.62-1.03,1.27-1.66,1.94-.62.65-1.31,1.2-2.05,1.66-.72.43-1.46.65-2.23.65ZM52.9,19.62c.29,0,.68-.2,1.19-.61.53-.43,1.09-.96,1.69-1.58.6-.65,1.16-1.32,1.69-2.02.53-.72.96-1.37,1.3-1.94.36-.6.54-1.06.54-1.37,0-.26-.08-.44-.25-.54-.14-.1-.34-.14-.58-.14-.38,0-.8.14-1.26.43-.43.26-.78.53-1.04.79-.29.26-.64.68-1.04,1.26-.38.55-.77,1.16-1.15,1.84-.38.67-.71,1.32-.97,1.94-.26.62-.4,1.13-.4,1.51,0,.29.1.43.29.43Z"/>
      <path id="Biehl" d="M17.67,41.46c-.17,0-.3-.05-.4-.14-.1-.07-.1-.13,0-.18.53-.1.98-.29,1.37-.58.38-.31.7-.7.94-1.15.5-.84,1-1.68,1.48-2.52.48-.86.95-1.73,1.4-2.59l3.46-6.37c.55-.98,1.03-1.93,1.44-2.84.43-.91.77-1.57,1.01-1.98.17-.31.46-.59.86-.83.43-.26.85-.47,1.26-.61h-.43c-.14-.02-.3-.04-.47-.04-.74,0-1.56.05-2.45.14-.86.07-1.72.19-2.56.36-.82.17-1.54.4-2.16.68-.62.29-1.04.64-1.26,1.04-.1.22-.18.43-.25.65s-.11.43-.11.65c0,.55.19.95.58,1.19.02,0,.04.02.04.07s-.05.1-.14.14c-.07.05-.14.06-.22.04-.22-.12-.48-.41-.79-.86-.31-.48-.5-.88-.58-1.19-.07-.29-.11-.55-.11-.79,0-.62.2-1.1.61-1.44.41-.36.92-.61,1.55-.76.62-.17,1.26-.26,1.91-.29.67-.05,1.26-.07,1.76-.07h2.74c1.06-.02,2.03-.04,2.92-.04h.72c.26-.02.54-.04.83-.04.65,0,1.32.04,2.02.11.7.07,1.33.23,1.91.47s1.02.61,1.33,1.12c.31.53.47,1.1.47,1.73s-.12,1.2-.36,1.8c-.24.6-.53,1.12-.86,1.55-.22.26-.47.53-.76.79-.29.26-.61.52-.97.76-.36.24-.76.47-1.19.68-.41.19-.9.35-1.48.47-.02,0-.05.04-.07.11,0,.07.02.11.07.11.12.02.32.06.61.11.31.02.59.06.83.11.84.17,1.54.53,2.09,1.08.58.53.86,1.25.86,2.16,0,1.03-.28,1.98-.83,2.84-.53.86-1.21,1.61-2.05,2.23-.84.6-1.72,1.07-2.63,1.4-1.15.43-2.47.65-3.96.65-.89,0-1.81-.08-2.77-.25-.96-.17-1.84-.46-2.63-.86-.17-.1-.34-.17-.5-.22-.17-.07-.35-.11-.54-.11-.34,0-.7.1-1.08.29-.24.1-.55.28-.94.54-.38.26-.82.48-1.3.65-.05.02-.12.04-.22.04ZM26.49,40.88c.62,0,1.25-.06,1.87-.18.62-.14,1.19-.31,1.69-.5.89-.34,1.7-.8,2.45-1.4.74-.62,1.34-1.36,1.8-2.2.48-.86.72-1.82.72-2.88,0-.7-.18-1.22-.54-1.58-.36-.38-.82-.65-1.37-.79-.55-.14-1.13-.22-1.73-.22-.46,0-.89.02-1.3.07-.41.05-.78.11-1.12.18-.67.12-1.27.25-1.8.4-.1-.05-.08-.13.04-.25.12-.14.28-.3.47-.47.22-.17.38-.3.5-.4.05-.05.14-.12.29-.22.17-.12.3-.18.4-.18,1.18,0,2.22-.07,3.13-.22.94-.14,1.74-.49,2.41-1.04.67-.58,1.22-1.46,1.66-2.66.22-.62.32-1.24.32-1.84,0-.7-.17-1.3-.5-1.8-.34-.53-.88-.84-1.62-.94-.1-.02-.2-.04-.32-.04h-.36c-.46,0-.96.06-1.51.18-.53.12-.92.35-1.19.68-.6.79-1.18,1.69-1.73,2.7-.55.98-1.08,1.99-1.58,3.02-.5,1.01-.98,1.96-1.44,2.84-.55,1.08-1.12,2.17-1.69,3.28s-1.14,2.22-1.69,3.35c-.14.29-.22.56-.22.83,0,.48.3.95.9,1.4.41.31.88.54,1.4.68.55.12,1.1.18,1.66.18ZM46.2,27.02c-.34,0-.58-.11-.72-.32-.1-.12-.14-.28-.14-.47,0-.38.18-.7.54-.94.26-.14.5-.22.72-.22.36,0,.61.11.76.32.1.12.14.28.14.47,0,.38-.19.7-.58.94-.22.14-.46.22-.72.22ZM39.93,40.88c-.24,0-.44-.05-.61-.14-.14-.1-.22-.28-.22-.54,0-.34.08-.73.25-1.19.19-.46.4-.91.61-1.37.24-.46.42-.83.54-1.12.17-.34.37-.77.61-1.3.26-.55.5-1.07.72-1.55.24-.5.41-.85.5-1.04-.34.36-.74.82-1.22,1.37-.46.53-.89,1.04-1.3,1.55-.41.5-.72.9-.94,1.19-.07.1-.13.14-.18.14s-.07-.06-.07-.18c0-.19.06-.37.18-.54.46-.58.96-1.22,1.51-1.94.58-.72,1.09-1.38,1.55-1.98.46-.62.74-1.03.86-1.22.26-.05.65-.12,1.15-.22.53-.1.89-.23,1.08-.4.07-.07.14-.11.22-.11.05,0,.07.05.07.14.02.07,0,.16-.07.25-.14.17-.4.58-.76,1.22-.36.65-.74,1.37-1.15,2.16-.38.77-.74,1.46-1.08,2.09-.34.65-.62,1.27-.86,1.87-.24.6-.36,1.03-.36,1.3,0,.34.17.5.5.5.31,0,.71-.19,1.19-.58.5-.38,1.01-.84,1.51-1.37.5-.55.95-1.06,1.33-1.51.12-.14.26-.31.43-.5.19-.22.31-.35.36-.4.05.05.07.13.07.25-.02.17-.08.34-.18.5-.1.14-.19.28-.29.4-.5.62-1.06,1.27-1.66,1.94-.6.65-1.26,1.2-1.98,1.66-.72.43-1.5.65-2.34.65ZM47.69,41.06c-.98,0-1.67-.19-2.05-.58s-.58-.85-.58-1.4c0-.7.18-1.44.54-2.23.38-.79.74-1.46,1.08-2.02.38-.58.9-1.18,1.55-1.8.65-.62,1.36-1.15,2.12-1.58.77-.43,1.51-.65,2.23-.65.62,0,1.06.16,1.3.47.24.29.36.64.36,1.04,0,.74-.23,1.36-.68,1.84-.43.48-.97.88-1.62,1.19-.65.29-1.27.53-1.87.72-.36.1-.78.19-1.26.29-.48.1-.94.14-1.37.14-.17.43-.3.85-.4,1.26-.1.41-.14.78-.14,1.12,0,.41.1.74.29,1.01.22.26.56.4,1.04.4.19,0,.42-.02.68-.07s.55-.12.86-.22c.72-.24,1.43-.62,2.12-1.15.7-.53,1.33-1.09,1.91-1.69.6-.62,1.06-1.14,1.37-1.55.07.07.11.16.11.25,0,.12-.08.31-.25.58-.48.67-1.1,1.37-1.87,2.09-.77.72-1.62,1.33-2.56,1.84-.94.48-1.91.72-2.92.72ZM47.72,35.77c.31.02.66.02,1.04,0,.41-.05.8-.13,1.19-.25.98-.29,1.69-.74,2.12-1.37.46-.65.68-1.22.68-1.73,0-.29-.06-.53-.18-.72-.12-.19-.31-.29-.58-.29-.7,0-1.32.26-1.87.79-.55.5-1.03,1.09-1.44,1.76-.41.67-.73,1.27-.97,1.8ZM59.93,40.99c-.36,0-.68-.07-.97-.22-.26-.14-.4-.41-.4-.79,0-.22.05-.46.14-.72.22-.55.5-1.22.86-2.02.38-.79.77-1.56,1.15-2.3.38-.77.68-1.39.9-1.87.14-.29.22-.49.22-.61,0-.22-.12-.26-.36-.14-.24.12-.5.29-.79.5-.29.22-.5.38-.65.5-.62.58-1.28,1.26-1.98,2.05-.67.77-1.3,1.58-1.87,2.45-.55.84-.98,1.68-1.3,2.52-.02.14-.18.26-.47.36-.29.1-.55.14-.79.14-.38,0-.53-.12-.43-.36.55-1.25,1.12-2.63,1.69-4.14.6-1.51,1.27-3.06,2.02-4.64.55-1.2,1.16-2.44,1.84-3.71.7-1.27,1.46-2.48,2.3-3.64.84-1.18,1.76-2.21,2.77-3.1.89-.77,1.86-1.39,2.92-1.87,1.08-.5,2.24-.76,3.49-.76.55,0,1.03.12,1.44.36.41.22.64.61.68,1.19v.32c0,.34-.04.67-.11,1.01-.02.1-.12.14-.29.14-.07,0-.1-.01-.07-.04.1-.62-.07-1.07-.5-1.33-.41-.26-.94-.4-1.58-.4-1.18,0-2.26.22-3.24.65-.98.43-1.9,1.01-2.74,1.73-1.3,1.13-2.42,2.57-3.38,4.32-.96,1.75-1.79,3.54-2.48,5.36-.34.89-.67,1.78-1.01,2.66-.31.89-.61,1.72-.9,2.48,1.08-1.44,2.11-2.68,3.1-3.71,1.01-1.03,1.88-1.76,2.63-2.2.6-.34,1.14-.5,1.62-.5s.68.19.68.58c0,.34-.17.77-.5,1.3-.17.26-.43.71-.79,1.33-.34.62-.7,1.31-1.08,2.05-.36.72-.67,1.39-.94,2.02s-.4,1.08-.4,1.37c0,.38.17.58.5.58.19,0,.41-.06.65-.18.26-.12.46-.23.58-.32.65-.48,1.28-1.07,1.91-1.76s1.15-1.31,1.58-1.84c.02-.02.04.01.04.11s-.02.24-.07.43c-.02.17-.1.31-.22.43-.26.36-.54.71-.83,1.04l-.79.94c-.46.53-1.01,1.03-1.66,1.51-.62.48-1.33.72-2.12.72ZM67.56,40.84c-.72,0-1.21-.17-1.48-.5-.26-.36-.4-.79-.4-1.3,0-.67.14-1.39.43-2.16.31-.77.56-1.37.76-1.8-.31.34-.61.66-.9.97s-.49.54-.61.68c-.07.1-.13.14-.18.14s-.07-.06-.07-.18c0-.19.06-.37.18-.54.34-.43.72-.89,1.15-1.37.43-.48.85-.98,1.26-1.51.48-.89,1.01-1.92,1.58-3.1.6-1.2,1.21-2.42,1.84-3.67.65-1.27,1.27-2.44,1.87-3.49.62-1.08,1.18-1.94,1.66-2.59.41-.17.79-.38,1.15-.65.38-.26.76-.5,1.12-.72.38-.24.78-.36,1.19-.36.26,0,.46.07.58.22.14.14.24.31.29.5.02.07.04.2.04.4,0,.55-.19,1.22-.58,2.02-.36.79-.79,1.57-1.3,2.34-.48.74-.9,1.36-1.26,1.84-.96,1.34-1.94,2.57-2.95,3.67-1.01,1.08-1.92,1.99-2.74,2.74-.79.72-1.37,1.25-1.73,1.58-.17.31-.37.73-.61,1.26-.22.5-.41,1.04-.58,1.62-.17.55-.25,1.07-.25,1.55,0,.41.1.76.29,1.04.19.26.52.4.97.4h.22c.07,0,.16-.01.25-.04.41-.07.85-.3,1.33-.68.48-.38.96-.83,1.44-1.33.48-.5.91-.98,1.3-1.44.17-.19.32-.37.47-.54.14-.19.24-.32.29-.4.17.17.16.38-.04.65-.17.24-.31.44-.43.61-.17.22-.41.52-.72.9-.31.36-.67.76-1.08,1.19-.46.46-1.02.91-1.69,1.37s-1.36.68-2.05.68ZM69.07,32.56c.74-.62,1.68-1.51,2.81-2.66,1.15-1.18,2.28-2.59,3.38-4.25.12-.19.31-.52.58-.97.29-.46.58-.97.86-1.55.31-.6.58-1.18.79-1.73.22-.58.32-1.07.32-1.48,0-.38-.11-.58-.32-.58-.26,0-.61.23-1.04.68-.5.53-1.08,1.31-1.73,2.34-.62,1.01-1.28,2.14-1.98,3.38-.7,1.25-1.37,2.47-2.02,3.67-.62,1.2-1.18,2.24-1.66,3.13Z"/>
      <path id="Code" d="M41.2,59.82c-1.27,0-2.5-.19-3.67-.58-1.15-.36-2.09-.97-2.81-1.84-.72-.86-1.08-2.03-1.08-3.49,0-1.56.3-3.08.9-4.57.6-1.49,1.4-2.87,2.41-4.14,1.01-1.3,2.14-2.41,3.38-3.35,1.1-.84,2.38-1.52,3.82-2.05,1.46-.53,2.92-.79,4.36-.79.6,0,1.16.05,1.69.14.53.07,1.07.24,1.62.5.48.22.86.49,1.15.83.29.31.43.67.43,1.08v.18c0,.07-.01.13-.04.18-.1.38-.32.83-.68,1.33-.34.48-.6.98-.79,1.51-.02.1-.16.18-.4.25-.24.05-.34.02-.29-.07.19-.31.34-.7.43-1.15.12-.46.18-.91.18-1.37,0-.34-.04-.65-.11-.94-.05-.31-.14-.58-.29-.79-.24-.43-.61-.73-1.12-.9-.5-.17-1.04-.25-1.62-.25s-1.1.06-1.66.18c-.55.12-1.03.25-1.44.4-1.39.5-2.72,1.3-4,2.38-1.13.98-2.14,2.12-3.02,3.42-.86,1.3-1.55,2.63-2.05,4-.5,1.37-.76,2.68-.76,3.92s.28,2.28.83,3.02c.55.74,1.27,1.27,2.16,1.58.89.31,1.85.47,2.88.47.91,0,1.81-.1,2.7-.29.91-.19,1.74-.43,2.48-.72,1.27-.48,2.41-1.07,3.42-1.76,1.03-.7,1.99-1.6,2.88-2.7.12-.12.2-.18.25-.18.07,0,.11.05.11.14,0,.19-.1.42-.29.68-.82,1.1-1.74,2.03-2.77,2.77-1.03.74-2.14,1.36-3.31,1.84-.79.31-1.72.58-2.77.79-1.03.22-2.08.32-3.13.32ZM53.05,58.84c-.38,0-.73-.07-1.04-.22-.29-.17-.43-.52-.43-1.04,0-.84.22-1.68.65-2.52.43-.86.88-1.62,1.33-2.27.41-.55.86-1.07,1.37-1.55.53-.5,1.09-.94,1.69-1.3.38-.24.9-.49,1.55-.76.67-.29,1.24-.43,1.69-.43.38,0,.72.11,1.01.32.29.19.43.55.43,1.08,0,.82-.22,1.66-.65,2.52-.41.84-.84,1.58-1.3,2.23-.22.29-.43.56-.65.83-.22.24-.46.49-.72.76.89,0,1.7-.25,2.45-.76.74-.53,1.39-1.16,1.94-1.91l.07-.07c.07,0,.11.07.11.22,0,.17-.05.32-.14.47-.48.67-1.08,1.27-1.8,1.8-.72.5-1.54.76-2.45.76h-.29c-.1,0-.19-.01-.29-.04-1.34,1.25-2.86,1.87-4.54,1.87ZM53.99,58.23c.34,0,.7-.12,1.08-.36.41-.24.72-.47.94-.68.41-.41.78-.84,1.12-1.3.34-.48.65-.96.94-1.44.34-.58.67-1.26,1.01-2.05.34-.79.5-1.54.5-2.23,0-.55-.19-.83-.58-.83-.31,0-.7.13-1.15.4-.43.26-.76.5-.97.72-.82.84-1.5,1.75-2.05,2.74-.31.55-.65,1.2-1.01,1.94-.36.74-.54,1.43-.54,2.05v.29c.02.07.05.16.07.25.1.34.31.5.65.5ZM66.9,58.88c-.24,0-.44-.05-.61-.14s-.25-.28-.25-.54c0-.34.08-.72.25-1.15.17-.43.36-.85.58-1.26.22-.43.41-.78.58-1.04-.84.89-1.72,1.73-2.63,2.52-.46.38-.96.74-1.51,1.08s-1.14.5-1.76.5c-.24,0-.41-.07-.5-.22-.1-.17-.14-.36-.14-.58,0-.12.01-.2.04-.25.12-.94.42-1.91.9-2.92.48-1.01,1.07-1.96,1.76-2.84.7-.89,1.4-1.61,2.12-2.16.55-.41,1.08-.66,1.58-.76.5-.12,1.06-.18,1.66-.18h1.19c.38-.65.78-1.37,1.19-2.16.43-.82.85-1.62,1.26-2.41.43-.79.83-1.49,1.19-2.09.98-1.68,2.06-3.02,3.24-4.03,1.2-1.01,2.53-1.51,4-1.51.31,0,.6.1.86.29.26.17.38.43.36.79l-.07,1.3s-.02.06-.07.11c-.05.02-.08.04-.11.04s-.06-.02-.11-.07c-.07-.43-.29-.76-.65-.97-.36-.24-.8-.36-1.33-.36-.17,0-.36.01-.58.04-.19.02-.38.07-.58.14-.67.24-1.31.73-1.91,1.48-.6.72-1.25,1.68-1.94,2.88-.24.46-.55,1.06-.94,1.8-.38.72-.79,1.5-1.22,2.34-.41.84-.8,1.66-1.19,2.45-.36.79-.67,1.46-.94,2.02-.12.29-.32.73-.61,1.33-.29.58-.6,1.21-.94,1.91-.31.67-.59,1.3-.83,1.87-.22.58-.32.98-.32,1.22,0,.34.14.5.43.5s.67-.17,1.15-.5c.48-.36.97-.79,1.48-1.3s1-1.03,1.4-1.51c.43-.48.73-.84.9-1.08.07.07.11.16.11.25,0,.17-.07.34-.22.5-.12.17-.23.31-.32.43-.43.58-.97,1.2-1.62,1.87-.62.65-1.31,1.21-2.05,1.69-.74.46-1.5.68-2.27.68ZM63.01,57.62c.29,0,.68-.2,1.19-.61.53-.43,1.09-.96,1.69-1.58.6-.65,1.16-1.32,1.69-2.02.53-.72.96-1.37,1.3-1.94.36-.6.54-1.06.54-1.37,0-.26-.08-.44-.25-.54-.14-.1-.34-.14-.58-.14-.38,0-.8.14-1.26.43-.43.26-.78.53-1.04.79-.29.26-.64.68-1.04,1.26-.38.55-.77,1.16-1.15,1.84s-.71,1.32-.97,1.94-.4,1.13-.4,1.51c0,.29.1.43.29.43ZM74.64,59.06c-.98,0-1.67-.19-2.05-.58-.38-.38-.58-.85-.58-1.4,0-.7.18-1.44.54-2.23.38-.79.74-1.46,1.08-2.02.38-.58.9-1.18,1.55-1.8.65-.62,1.36-1.15,2.12-1.58.77-.43,1.51-.65,2.23-.65.62,0,1.06.16,1.3.47.24.29.36.64.36,1.04,0,.74-.23,1.36-.68,1.84-.43.48-.97.88-1.62,1.19-.65.29-1.27.53-1.87.72-.36.1-.78.19-1.26.29-.48.1-.94.14-1.37.14-.17.43-.3.85-.4,1.26s-.14.78-.14,1.12c0,.41.1.74.29,1.01.22.26.56.4,1.04.4.19,0,.42-.02.68-.07.26-.05.55-.12.86-.22.72-.24,1.43-.62,2.12-1.15s1.33-1.09,1.91-1.69c.6-.62,1.06-1.14,1.37-1.55.07.07.11.16.11.25,0,.12-.08.31-.25.58-.48.67-1.1,1.37-1.87,2.09-.77.72-1.62,1.33-2.56,1.84-.94.48-1.91.72-2.92.72ZM74.67,53.77c.31.02.66.02,1.04,0,.41-.05.8-.13,1.19-.25.98-.29,1.69-.74,2.12-1.37.46-.65.68-1.22.68-1.73,0-.29-.06-.53-.18-.72-.12-.19-.31-.29-.58-.29-.7,0-1.32.26-1.87.79-.55.5-1.03,1.09-1.44,1.76s-.73,1.27-.97,1.8Z"/>
    </g>
  </g>
</svg>